<svg width="244" height="29" viewBox="0 0 244 29" fill="none" xmlns="http://www.w3.org/2000/svg">
<g clip-path="url(#clip0_2007_26)">
<path d="M43.8942 1.03107C42.8614 2.70662 41.1831 8.31329 39.7307 14.9833C37.7296 24.0055 37.6005 24.1022 38.2783 16.3044C38.6656 11.9222 38.6656 10.7944 38.3429 10.4077C37.891 9.85996 34.2762 9.9244 24.5291 10.6655C12.2323 11.5677 2.09791 14.1133 0.419601 16.6588C-1.58146 19.6877 4.32489 22.2977 16.9445 23.9733C20.2043 24.3922 31.2101 25.4555 32.5334 25.4555C32.7593 25.4555 32.9207 25.0366 32.9207 24.36V23.2966L28.9831 23.0711C15.9117 22.33 5.51907 20.5577 3.09844 18.6566C1.42013 17.3355 2.19473 16.5944 6.58415 15.3377C11.9418 13.7588 25.3683 12.2444 33.5984 12.2444H36.7937V13.2755C36.7937 13.8555 36.5677 17.1744 36.3095 20.6222C35.7931 27.0988 35.8577 28.6777 36.6323 28.6777C37.3423 28.6777 37.6005 27.9044 38.8593 22.2333C40.2148 16.1111 43.0228 5.09107 43.5392 3.76996C44.1201 2.28773 44.5074 3.09329 44.3461 5.41329C42.9259 26.8411 42.8614 28.4522 43.6037 28.6133C44.3461 28.7422 44.7656 27.4855 46.9603 18.3666C47.9931 14.21 49.0259 10.3755 49.2841 9.85996C50.2847 7.95885 50.4461 9.66662 49.8974 16.2077C49.2196 24.4244 49.2196 25.0366 50.0265 25.2944C50.3815 25.3911 53.609 25.3266 57.1916 25.1333C71.2635 24.36 82.9471 22.1688 86.4328 19.6555C87.5625 18.85 87.7884 18.4955 87.7884 17.5611C87.7884 16.6911 87.5625 16.3044 86.7233 15.66C84.2704 13.7911 79.4614 12.5022 70.5212 11.31C64.518 10.5044 56.0619 9.82773 55.3841 10.0855C55.0937 10.2144 54.8677 10.6655 54.8677 11.0844C54.8677 12.1155 54.8032 12.0833 62.3233 12.5666C71.3603 13.1144 81.0752 14.6611 83.754 16.0144C87.7884 18.0766 85.3032 19.5911 75.2011 21.2344C66.7127 22.62 51.6725 23.7155 51.2207 22.9744C51.0916 22.7811 51.2207 20.4611 51.4789 17.8511C52.1244 11.3744 52.1244 7.28218 51.4466 6.63773C50.0587 5.21996 48.5418 8.08773 46.7021 15.7566C46.0244 18.6888 45.3789 21.2988 45.3143 21.5566C44.927 22.8133 44.9916 21.1055 45.5402 14.5C46.2503 5.89662 46.3148 0.934401 45.7662 0.386623C45.1207 -0.257821 44.572 -0.0644881 43.8942 1.03107Z" fill="white"/>
<path d="M101.086 12.6311C100.117 13.1144 100.021 13.6944 100.117 17.8833L100.214 21.4278L101.602 21.5244L102.958 21.6211V19.6878V17.7222H104.571H106.185V19.6878V21.6211L107.573 21.5244L108.929 21.4278L109.025 18.2055C109.155 14.0166 108.961 13.0822 107.928 12.6311C106.928 12.1478 102.086 12.18 101.086 12.6311ZM106.185 15.4666C106.185 16.0144 105.959 16.1111 104.571 16.1111C103.184 16.1111 102.958 16.0144 102.958 15.4666C102.958 14.9189 103.184 14.8222 104.571 14.8222C105.959 14.8222 106.185 14.9189 106.185 15.4666Z" fill="white"/>
<path d="M114.706 12.6956C114.351 13.63 114.738 20.59 115.158 21.0089C115.416 21.2667 116.739 21.46 118.934 21.5245C123.582 21.6856 123.614 21.6534 123.614 16.2722V12.2445H122.161H120.709V15.6278V19.0111H119.095H117.482V15.6278V12.2445H116.191C115.351 12.2445 114.803 12.4056 114.706 12.6956Z" fill="white"/>
<path d="M129.423 16.9489V21.6533L133.296 21.5244C138.331 21.3955 138.299 21.4278 138.299 16.8844C138.299 12.3411 138.202 12.2444 133.103 12.2444H129.423V16.9489ZM135.556 16.9167V19.0111H133.78H132.005V16.9167V14.8222H133.78H135.556V16.9167Z" fill="white"/>
<path d="M144.27 16.9166V21.5889H145.561H146.852V16.9166V12.2444H145.561H144.27V16.9166Z" fill="white"/>
<path d="M153.63 12.8243C152.855 13.4365 152.823 13.6621 152.823 16.9165C152.823 20.1388 152.855 20.3965 153.597 20.9765C154.953 22.1043 160.278 21.7499 161.117 20.4932C161.247 20.2999 161.376 18.6888 161.376 16.8843C161.376 12.5021 161.311 12.4376 157.438 12.3088C154.792 12.2121 154.307 12.2765 153.63 12.8243ZM158.471 16.9165V19.011H157.019H155.566V16.9165V14.8221H157.019H158.471V16.9165Z" fill="white"/>
<path d="M167.185 16.9166V21.5889H168.476H169.767L169.8 18.4311L169.832 15.3055L170.413 17.5611C170.736 18.7855 171.091 20.2033 171.187 20.6866C171.349 21.46 171.542 21.5889 172.478 21.5889H173.608L174.35 18.4311L175.093 15.3055L175.19 18.4311L175.286 21.5889H176.545H177.836V16.9166V12.2122L175.835 12.3089L173.834 12.4055L173.156 15.3055L172.478 18.2055L172.059 16.4333C171.865 15.4666 171.542 14.1133 171.349 13.4366L171.026 12.2444H169.122H167.185V16.9166Z" fill="white"/>
<path d="M183.646 16.4011C183.646 21.5889 183.646 21.5889 188.003 21.5889C192.36 21.5889 192.36 21.5889 192.36 16.4011V12.2122L191.004 12.3089L189.616 12.4055L189.52 15.6922L189.423 19.0111H188.003H186.583L186.486 15.6922L186.389 12.4055L185.033 12.3089L183.646 12.2122V16.4011Z" fill="white"/>
<path d="M199.622 12.47C198.428 12.76 198.169 13.2433 198.169 15.1122C198.169 17.7222 198.363 17.8511 201.397 17.98C203.333 18.0767 203.979 18.2378 203.979 18.56C203.979 18.9144 203.333 19.0111 201.074 19.0111H198.169V20.3322V21.6533L202.075 21.5244C206.593 21.3955 206.884 21.2344 206.884 18.6244C206.884 16.3044 206.206 15.7889 203.172 15.7889C201.236 15.7889 200.751 15.6922 200.751 15.3055C200.751 14.9189 201.268 14.8222 203.495 14.8222H206.238V13.5333V12.2444L203.269 12.2767C201.623 12.3089 199.977 12.4055 199.622 12.47Z" fill="white"/>
<path d="M212.693 16.9166V21.5889H213.984H215.275V16.9166V12.2444H213.984H212.693V16.9166Z" fill="white"/>
<path d="M222.44 12.5667C221.375 13.0178 221.02 14.3389 221.149 17.4644C221.278 21.2989 221.375 21.3955 225.926 21.5244L229.476 21.6533V20.3322V19.0111H226.733H223.99V16.9167V14.8222H226.733H229.476V13.5333V12.2444L226.346 12.2767C224.603 12.2767 222.86 12.4055 222.44 12.5667Z" fill="white"/>
<path d="M236.028 12.7278C235.318 13.2111 235.286 13.4689 235.286 17.4322V21.5889H236.577H237.868V19.6555V17.7222H239.481H241.095V19.6555V21.5889H242.548H244V17.6255C244 12.3733 244.032 12.4378 239.901 12.3089C237.384 12.2122 236.577 12.3089 236.028 12.7278ZM241.095 15.4989C241.095 16.0789 240.934 16.1433 239.578 16.0466C238.416 15.9822 237.997 15.8211 237.932 15.37C237.835 14.9189 238.061 14.8222 239.449 14.8222C240.902 14.8222 241.095 14.9189 241.095 15.4989Z" fill="white"/>
</g>
<defs>
<clipPath id="clip0_2007_26">
<rect width="244" height="29" fill="white"/>
</clipPath>
</defs>
</svg>
